<svg xmlns="http://www.w3.org/2000/svg" viewBox="0 0 100 100"><path fill="currentColor" d="M50,2.19A49,49,0,0,0,34.52,97.74c2.45.39,3.23-1.13,3.23-2.45V87c-13.57,2.94-16.46-6.57-16.46-6.57-2.25-5.68-5.44-7.2-5.44-7.2-4.46-3,.34-2.94.34-2.94,4.9.34,7.5,5,7.5,5,4.26,7.45,11.47,5.24,14.26,4.07A10.58,10.58,0,0,1,41,72.85c-10.88-1.22-22.3-5.44-22.3-24.11a19,19,0,0,1,5-13.28,17.52,17.52,0,0,1,.49-12.94s4.12-1.32,13.48,5a47.21,47.21,0,0,1,24.5,0c9.36-6.32,13.47-5,13.47-5a17.53,17.53,0,0,1,.49,12.94,19,19,0,0,1,5,13.28c0,18.72-11.47,22.83-22.39,24.06,1.76,1.52,3.38,4.51,3.38,9.07V95.29c0,1.32.78,2.89,3.28,2.45A49,49,0,0,0,50,2.19Z"/></svg>