<svg xmlns="http://www.w3.org/2000/svg" viewBox="0 0 100 100"><path fill="currentColor" fill-rule="evenodd" d="M60.89,1H22.79a7.28,7.28,0,0,0-7.27,7.29V91.71A7.26,7.26,0,0,0,22.77,99H77.23a7.25,7.25,0,0,0,7.25-7.23V26.41L62.7,1ZM59.07,4.63H22.76a3.64,3.64,0,0,0-3.61,3.61V91.76a3.64,3.64,0,0,0,3.63,3.61H77.22a3.62,3.62,0,0,0,3.63-3.61V30H66.33a7.24,7.24,0,0,1-7.25-7.28V4.63ZM62.7,6.44v16.3a3.65,3.65,0,0,0,3.62,3.66H79.76L62.7,6.44Zm-36.3,5.44v7.26H30V15.52h3.63V30H37.3V15.52h3.63v3.63h3.63V11.89Zm0,36.3v3.63H73.59V48.19Zm0-10.89v3.63H73.59V37.3Zm0,21.78V62.7H73.59V59.07Zm0,10.89v3.63H73.59V70Zm0,10.89v3.63H73.59V80.85Zm0,0"/></svg>