<svg xmlns="http://www.w3.org/2000/svg" viewBox="0 0 100 100"><path fill="currentColor" d="M70.73,99.46a1.6,1.6,0,0,1-1.51-1l-5.87-13.9H36.65L30.78,98.44a1.67,1.67,0,0,1-1.51,1,1.47,1.47,0,0,1-.52-.12l-.2-.07a1.52,1.52,0,0,1-.89-.82,1.77,1.77,0,0,1,0-1.37l6.28-14.88L37.75,73H12.84a1.7,1.7,0,0,1-1.69-1.69V62.36a1.7,1.7,0,0,1,1.69-1.69H18.2V13.78H12.84a1.7,1.7,0,0,1-1.69-1.69V3.15a1.7,1.7,0,0,1,1.69-1.69H87.16a1.7,1.7,0,0,1,1.69,1.69v9a1.7,1.7,0,0,1-1.69,1.69H81.69V60.67h5.36a1.7,1.7,0,0,1,1.69,1.69V71.3A1.7,1.7,0,0,1,87.05,73H62.13L72.35,97.08a1.71,1.71,0,0,1-.93,2.19l-.17.06A1.48,1.48,0,0,1,70.73,99.46ZM38.09,81.18H61.91L58.5,73.1h-17ZM14.53,69.6H85.47V64.06H80.66a1.26,1.26,0,0,1-.55.11H19.9l-.12,0a1.29,1.29,0,0,0-.43-.08H14.53Zm7.06-9,.42.17,56.4,0V13.89H21.59ZM14.53,10.5H80.61v-.11h4.74V4.84H14.53Zm15.4,38.35a1.68,1.68,0,0,1-1.18-.51,1.63,1.63,0,0,1,0-2.37L41.87,33a1.62,1.62,0,0,1,2.37,0l9,9L68.89,26.23a1.5,1.5,0,0,1,2.25,0,1.62,1.62,0,0,1,0,2.37L54.27,45.46a1.62,1.62,0,0,1-2.37,0l-9-9L31.11,48.33A1.67,1.67,0,0,1,29.93,48.84Z"/></svg>