<svg xmlns="http://www.w3.org/2000/svg" viewBox="0 0 100 100"><path fill="currentColor" d="M60.89,1H22.79a7.28,7.28,0,0,0-7.27,7.29V91.71A7.26,7.26,0,0,0,22.77,99H77.23a7.25,7.25,0,0,0,7.25-7.23V26.41L62.7,1ZM59.07,4.63H22.76a3.64,3.64,0,0,0-3.61,3.61V91.76a3.64,3.64,0,0,0,3.63,3.61H77.22a3.62,3.62,0,0,0,3.63-3.61V30H66.33a7.24,7.24,0,0,1-7.25-7.28V4.63ZM62.7,6.44v16.3a3.65,3.65,0,0,0,3.62,3.66H79.76L62.7,6.44ZM26.41,48.19V88.11H73.59V48.19ZM37.3,51.81V66.33H62.7V51.81ZM37.3,70V84.48H62.7V70ZM30,51.81v3.63h3.63V51.81Zm0,7.26V62.7h3.63V59.07Zm0,7.26V70h3.63V66.33Zm0,7.26v3.63h3.63V73.59Zm0,7.26v3.63h3.63V80.85Zm36.3-29v3.63H70V51.81Zm0,7.26V62.7H70V59.07Zm0,7.26V70H70V66.33Zm0,7.26v3.63H70V73.59Zm0,7.26v3.63H70V80.85Zm0,0" fill-rule="evenodd"/></svg>